<?xml version="1.0" encoding="UTF-8"?>
<!DOCTYPE svg PUBLIC "-//W3C//DTD SVG 1.1//EN" "http://www.w3.org/Graphics/SVG/1.1/DTD/svg11.dtd">
<svg xmlns="http://www.w3.org/2000/svg" version="1.1" width="1024px" height="1024px" style="shape-rendering:geometricPrecision; text-rendering:geometricPrecision; image-rendering:optimizeQuality; fill-rule:evenodd; clip-rule:evenodd" xmlns:xlink="http://www.w3.org/1999/xlink">
<g><path style="opacity:1" fill="#000000" d="M -0.5,-0.5 C 340.833,-0.5 682.167,-0.5 1023.5,-0.5C 1023.5,340.833 1023.5,682.167 1023.5,1023.5C 682.167,1023.5 340.833,1023.5 -0.5,1023.5C -0.5,682.167 -0.5,340.833 -0.5,-0.5 Z"/></g>
<g><path style="opacity:1" fill="#f6f6f6" d="M 197.5,139.5 C 259.834,139.333 322.168,139.5 384.5,140C 400.261,141.114 411.761,148.614 419,162.5C 474.831,255.5 531.164,348.166 588,440.5C 591.326,446.812 593.66,453.479 595,460.5C 595.667,587.5 595.667,714.5 595,841.5C 591.468,856.7 581.968,865.2 566.5,867C 510.833,867.667 455.167,867.667 399.5,867C 384.921,863.049 376.421,853.549 374,838.5C 373.667,726.5 373.333,614.5 373,502.5C 372.267,496.235 370.601,490.235 368,484.5C 304.165,382.168 240.832,279.501 178,176.5C 171.94,157.278 178.44,144.945 197.5,139.5 Z"/></g>
<g><path style="opacity:1" fill="#f7f7f7" d="M 646.5,139.5 C 707.148,136.385 749.648,162.385 774,217.5C 788.069,263.97 778.569,304.803 745.5,340C 708.21,372.106 666.21,380.106 619.5,364C 567.137,339.126 542.637,297.626 546,239.5C 557.473,183.86 590.973,150.527 646.5,139.5 Z"/></g>
<g><path style="opacity:1" fill="#000000" d="M 215.5,174.5 C 271.999,173.335 328.665,173.168 385.5,174C 442.459,266.75 499.292,359.583 556,452.5C 558.66,456.814 560.327,461.481 561,466.5C 561.5,589.166 561.667,711.833 561.5,834.5C 510.167,834.5 458.833,834.5 407.5,834.5C 407.667,723.499 407.5,612.499 407,501.5C 406.398,492.821 404.398,484.488 401,476.5C 339.894,375.268 278.061,274.601 215.5,174.5 Z"/></g>
<g><path style="opacity:1" fill="#000000" d="M 655.5,172.5 C 702.888,173.069 733.055,196.069 746,241.5C 750.383,282.911 734.216,313.078 697.5,332C 653.08,347.526 617.58,336.026 591,297.5C 573.722,264.295 576.055,232.629 598,202.5C 613.347,184.912 632.514,174.912 655.5,172.5 Z"/></g>
</svg>
