<?xml version="1.0" encoding="UTF-8"?>
<!DOCTYPE svg PUBLIC "-//W3C//DTD SVG 1.1//EN" "http://www.w3.org/Graphics/SVG/1.1/DTD/svg11.dtd">
<svg xmlns="http://www.w3.org/2000/svg" version="1.1" width="338px" height="341px" style="shape-rendering:geometricPrecision; text-rendering:geometricPrecision; image-rendering:optimizeQuality; fill-rule:evenodd; clip-rule:evenodd" xmlns:xlink="http://www.w3.org/1999/xlink">
<g><path style="opacity:1" fill="#0c1219" d="M -0.5,-0.5 C 112.167,-0.5 224.833,-0.5 337.5,-0.5C 337.5,2.83333 337.5,6.16667 337.5,9.5C 329.94,12.6955 326.606,10.3622 327.5,2.5C 323.167,2.5 318.833,2.5 314.5,2.5C 314.299,12.9694 313.632,12.9694 312.5,2.5C 308.167,2.5 303.833,2.5 299.5,2.5C 299.299,12.9694 298.632,12.9694 297.5,2.5C 293.167,2.5 288.833,2.5 284.5,2.5C 284.299,12.9694 283.632,12.9694 282.5,2.5C 278.167,2.5 273.833,2.5 269.5,2.5C 269.299,12.9694 268.632,12.9694 267.5,2.5C 263.167,2.5 258.833,2.5 254.5,2.5C 254.299,12.9694 253.632,12.9694 252.5,2.5C 248.167,2.5 243.833,2.5 239.5,2.5C 239.299,12.9694 238.632,12.9694 237.5,2.5C 233.167,2.5 228.833,2.5 224.5,2.5C 224.299,12.9694 223.632,12.9694 222.5,2.5C 218.167,2.5 213.833,2.5 209.5,2.5C 209.299,12.9694 208.632,12.9694 207.5,2.5C 203.167,2.5 198.833,2.5 194.5,2.5C 194.299,12.9694 193.632,12.9694 192.5,2.5C 188.167,2.5 183.833,2.5 179.5,2.5C 179.299,12.9694 178.632,12.9694 177.5,2.5C 173.167,2.5 168.833,2.5 164.5,2.5C 164.299,12.9694 163.632,12.9694 162.5,2.5C 158.167,2.5 153.833,2.5 149.5,2.5C 148.833,13.1667 148.167,13.1667 147.5,2.5C 143.167,2.5 138.833,2.5 134.5,2.5C 133.833,13.1667 133.167,13.1667 132.5,2.5C 128.167,2.5 123.833,2.5 119.5,2.5C 118.833,13.1667 118.167,13.1667 117.5,2.5C 113.167,2.5 108.833,2.5 104.5,2.5C 103.833,13.1667 103.167,13.1667 102.5,2.5C 98.1667,2.5 93.8333,2.5 89.5,2.5C 88.8333,13.1667 88.1667,13.1667 87.5,2.5C 83.1667,2.5 78.8333,2.5 74.5,2.5C 73.8333,13.1667 73.1667,13.1667 72.5,2.5C 68.1667,2.5 63.8333,2.5 59.5,2.5C 58.8333,13.1667 58.1667,13.1667 57.5,2.5C 53.1667,2.5 48.8333,2.5 44.5,2.5C 43.8333,13.1667 43.1667,13.1667 42.5,2.5C 38.1667,2.5 33.8333,2.5 29.5,2.5C 28.3677,12.9694 27.7011,12.9694 27.5,2.5C 23.1667,2.5 18.8333,2.5 14.5,2.5C 13.3677,12.9694 12.7011,12.9694 12.5,2.5C 8.83333,2.5 5.16667,2.5 1.5,2.5C 1.33333,113.501 1.5,224.501 2,335.5C 6.41316,336.632 10.9132,336.799 15.5,336C 16.3366,334.989 16.67,333.822 16.5,332.5C 18.8333,332.5 21.1667,332.5 23.5,332.5C 23.33,333.822 23.6634,334.989 24.5,336C 29.2018,336.172 33.8685,336.672 38.5,337.5C 38.7093,338.086 39.0426,338.586 39.5,339C 43.0252,339.179 46.3586,339.679 49.5,340.5C 32.8333,340.5 16.1667,340.5 -0.5,340.5C -0.5,226.833 -0.5,113.167 -0.5,-0.5 Z"/></g>
<g><path style="opacity:1" fill="#061219" d="M 337.5,9.5 C 337.5,119.833 337.5,230.167 337.5,340.5C 241.5,340.5 145.5,340.5 49.5,340.5C 46.3586,339.679 43.0252,339.179 39.5,339C 39.0426,338.586 38.7093,338.086 38.5,337.5C 33.8685,336.672 29.2018,336.172 24.5,336C 23.6634,334.989 23.33,333.822 23.5,332.5C 21.1667,332.5 18.8333,332.5 16.5,332.5C 16.67,333.822 16.3366,334.989 15.5,336C 10.9132,336.799 6.41316,336.632 2,335.5C 1.5,224.501 1.33333,113.501 1.5,2.5C 5.16667,2.5 8.83333,2.5 12.5,2.5C 12.7011,12.9694 13.3677,12.9694 14.5,2.5C 18.8333,2.5 23.1667,2.5 27.5,2.5C 27.7011,12.9694 28.3677,12.9694 29.5,2.5C 33.8333,2.5 38.1667,2.5 42.5,2.5C 43.1667,13.1667 43.8333,13.1667 44.5,2.5C 48.8333,2.5 53.1667,2.5 57.5,2.5C 58.1667,13.1667 58.8333,13.1667 59.5,2.5C 63.8333,2.5 68.1667,2.5 72.5,2.5C 73.1667,13.1667 73.8333,13.1667 74.5,2.5C 78.8333,2.5 83.1667,2.5 87.5,2.5C 88.1667,13.1667 88.8333,13.1667 89.5,2.5C 93.8333,2.5 98.1667,2.5 102.5,2.5C 103.167,13.1667 103.833,13.1667 104.5,2.5C 108.833,2.5 113.167,2.5 117.5,2.5C 118.167,13.1667 118.833,13.1667 119.5,2.5C 123.833,2.5 128.167,2.5 132.5,2.5C 133.167,13.1667 133.833,13.1667 134.5,2.5C 138.833,2.5 143.167,2.5 147.5,2.5C 148.167,13.1667 148.833,13.1667 149.5,2.5C 153.833,2.5 158.167,2.5 162.5,2.5C 163.632,12.9694 164.299,12.9694 164.5,2.5C 168.833,2.5 173.167,2.5 177.5,2.5C 178.632,12.9694 179.299,12.9694 179.5,2.5C 183.833,2.5 188.167,2.5 192.5,2.5C 193.632,12.9694 194.299,12.9694 194.5,2.5C 198.833,2.5 203.167,2.5 207.5,2.5C 208.632,12.9694 209.299,12.9694 209.5,2.5C 213.833,2.5 218.167,2.5 222.5,2.5C 223.632,12.9694 224.299,12.9694 224.5,2.5C 228.833,2.5 233.167,2.5 237.5,2.5C 238.632,12.9694 239.299,12.9694 239.5,2.5C 243.833,2.5 248.167,2.5 252.5,2.5C 253.632,12.9694 254.299,12.9694 254.5,2.5C 258.833,2.5 263.167,2.5 267.5,2.5C 268.632,12.9694 269.299,12.9694 269.5,2.5C 273.833,2.5 278.167,2.5 282.5,2.5C 283.632,12.9694 284.299,12.9694 284.5,2.5C 288.833,2.5 293.167,2.5 297.5,2.5C 298.632,12.9694 299.299,12.9694 299.5,2.5C 303.833,2.5 308.167,2.5 312.5,2.5C 313.632,12.9694 314.299,12.9694 314.5,2.5C 318.833,2.5 323.167,2.5 327.5,2.5C 326.606,10.3622 329.94,12.6955 337.5,9.5 Z"/></g>
<g><path style="opacity:1" fill="#001c18" d="M 265.5,110.5 C 263.901,110.232 262.568,110.566 261.5,111.5C 234.426,111.176 207.426,111.509 180.5,112.5C 181.949,110.836 183.949,110.002 186.5,110C 193.167,109.833 199.833,109.667 206.5,109.5C 226.282,109.584 245.949,109.918 265.5,110.5 Z"/></g>
<g><path style="opacity:1" fill="#3a4146" d="M 109.5,155.5 C 109.167,155.5 108.833,155.5 108.5,155.5C 108.829,141.656 108.496,127.99 107.5,114.5C 98.6822,113.507 89.6822,113.173 80.5,113.5C 80.6107,112.883 80.944,112.383 81.5,112C 90.8333,111.333 100.167,111.333 109.5,112C 109.466,126.291 109.466,140.791 109.5,155.5 Z"/></g>
<g><path style="opacity:1" fill="#393e48" d="M 165.5,113.5 C 156.167,113.5 146.833,113.5 137.5,113.5C 137.611,112.883 137.944,112.383 138.5,112C 147.833,111.333 157.167,111.333 166.5,112C 165.944,112.383 165.611,112.883 165.5,113.5 Z"/></g>
<g><path style="opacity:1" fill="#004a25" d="M 261.5,111.5 C 262.873,111.343 264.207,111.51 265.5,112C 264.944,112.383 264.611,112.883 264.5,113.5C 236.5,113.5 208.5,113.5 180.5,113.5C 180.5,113.167 180.5,112.833 180.5,112.5C 207.426,111.509 234.426,111.176 261.5,111.5 Z"/></g>
<g><path style="opacity:1" fill="#f9f9f9" d="M 107.5,114.5 C 108.496,127.99 108.829,141.656 108.5,155.5C 117.986,156.494 127.652,156.827 137.5,156.5C 137.5,142.5 137.5,128.5 137.5,114.5C 146.5,114.5 155.5,114.5 164.5,114.5C 164.5,151.833 164.5,189.167 164.5,226.5C 155.5,226.5 146.5,226.5 137.5,226.5C 137.5,212.833 137.5,199.167 137.5,185.5C 133.049,184.173 128.216,183.506 123,183.5C 117.988,183.501 113.155,183.834 108.5,184.5C 107.504,198.323 107.171,212.323 107.5,226.5C 98.5,226.5 89.5,226.5 80.5,226.5C 80.5,189.167 80.5,151.833 80.5,114.5C 89.5,114.5 98.5,114.5 107.5,114.5 Z"/></g>
<g><path style="opacity:1" fill="#021e10" d="M 180.5,112.5 C 180.5,112.833 180.5,113.167 180.5,113.5C 179.502,150.996 179.168,188.663 179.5,226.5C 178.167,208.346 177.5,189.846 177.5,171C 177.667,152.5 177.833,134 178,115.5C 178.236,113.881 179.069,112.881 180.5,112.5 Z"/></g>
<g><path style="opacity:1" fill="#07e064" d="M 181.5,115.5 C 208.741,115.172 235.907,115.505 263,116.5C 263.5,152.832 263.667,189.165 263.5,225.5C 238.5,225.5 213.5,225.5 188.5,225.5C 211.663,224.668 234.996,224.168 258.5,224C 259.624,223.751 260.624,223.251 261.5,222.5C 262.793,187.194 262.793,151.861 261.5,116.5C 235.228,116.405 209.061,116.738 183,117.5C 183.045,152.163 183.545,186.829 184.5,221.5C 187.125,222.865 187.125,224.198 184.5,225.5C 183.609,224.89 182.609,224.557 181.5,224.5C 181.5,188.167 181.5,151.833 181.5,115.5 Z"/></g>
<g><path style="opacity:1" fill="#00e663" d="M 188.5,225.5 C 187.167,225.5 185.833,225.5 184.5,225.5C 187.125,224.198 187.125,222.865 184.5,221.5C 183.545,186.829 183.045,152.163 183,117.5C 209.061,116.738 235.228,116.405 261.5,116.5C 262.793,151.861 262.793,187.194 261.5,222.5C 260.624,223.251 259.624,223.751 258.5,224C 234.996,224.168 211.663,224.668 188.5,225.5 Z"/></g>
<g><path style="opacity:1" fill="#646d6f" d="M 137.5,113.5 C 137.5,113.833 137.5,114.167 137.5,114.5C 137.5,128.5 137.5,142.5 137.5,156.5C 127.652,156.827 117.986,156.494 108.5,155.5C 108.833,155.5 109.167,155.5 109.5,155.5C 118.5,155.5 127.5,155.5 136.5,155.5C 136.171,141.323 136.504,127.323 137.5,113.5 Z"/></g>
<g><path style="opacity:1" fill="#1dd96d" d="M 181.5,115.5 C 181.5,115.167 181.5,114.833 181.5,114.5C 209.167,114.5 236.833,114.5 264.5,114.5C 264.5,151.833 264.5,189.167 264.5,226.5C 237.167,226.5 209.833,226.5 182.5,226.5C 182.167,225.833 181.833,225.167 181.5,224.5C 182.609,224.557 183.609,224.89 184.5,225.5C 185.833,225.5 187.167,225.5 188.5,225.5C 213.5,225.5 238.5,225.5 263.5,225.5C 263.667,189.165 263.5,152.832 263,116.5C 235.907,115.505 208.741,115.172 181.5,115.5 Z"/></g>
<g><path style="opacity:1" fill="#c3c8ca" d="M 137.5,114.5 C 137.5,114.167 137.5,113.833 137.5,113.5C 146.833,113.5 156.167,113.5 165.5,113.5C 165.5,151.5 165.5,189.5 165.5,227.5C 155.833,227.5 146.167,227.5 136.5,227.5C 136.5,213.5 136.5,199.5 136.5,185.5C 136.833,185.5 137.167,185.5 137.5,185.5C 137.5,199.167 137.5,212.833 137.5,226.5C 146.5,226.5 155.5,226.5 164.5,226.5C 164.5,189.167 164.5,151.833 164.5,114.5C 155.5,114.5 146.5,114.5 137.5,114.5 Z"/></g>
<g><path style="opacity:1" fill="#2bd575" d="M 180.5,114.5 C 180.833,114.5 181.167,114.5 181.5,114.5C 181.5,114.833 181.5,115.167 181.5,115.5C 181.5,151.833 181.5,188.167 181.5,224.5C 181.833,225.167 182.167,225.833 182.5,226.5C 181.833,226.5 181.167,226.5 180.5,226.5C 180.5,189.167 180.5,151.833 180.5,114.5 Z"/></g>
<g><path style="opacity:1" fill="#8d8f95" d="M 80.5,113.5 C 89.6822,113.173 98.6822,113.507 107.5,114.5C 98.5,114.5 89.5,114.5 80.5,114.5C 80.5,151.833 80.5,189.167 80.5,226.5C 80.5,226.833 80.5,227.167 80.5,227.5C 79.1667,189.5 79.1667,151.5 80.5,113.5 Z"/></g>
<g><path style="opacity:1" fill="#1fa45a" d="M 180.5,114.5 C 180.5,114.167 180.5,113.833 180.5,113.5C 208.5,113.5 236.5,113.5 264.5,113.5C 265.499,151.33 265.832,189.33 265.5,227.5C 265.167,227.5 264.833,227.5 264.5,227.5C 236.328,227.831 208.328,227.498 180.5,226.5C 181.167,226.5 181.833,226.5 182.5,226.5C 209.833,226.5 237.167,226.5 264.5,226.5C 264.5,189.167 264.5,151.833 264.5,114.5C 236.833,114.5 209.167,114.5 181.5,114.5C 181.167,114.5 180.833,114.5 180.5,114.5 Z"/></g>
<g><path style="opacity:1" fill="#032a13" d="M 261.5,111.5 C 262.568,110.566 263.901,110.232 265.5,110.5C 266.289,110.783 266.956,111.283 267.5,112C 267.653,149.96 267.487,188.127 267,226.5C 266.617,227.056 266.117,227.389 265.5,227.5C 265.832,189.33 265.499,151.33 264.5,113.5C 264.611,112.883 264.944,112.383 265.5,112C 264.207,111.51 262.873,111.343 261.5,111.5 Z"/></g>
<g><path style="opacity:1" fill="#d9dae0" d="M 108.5,184.5 C 113.155,183.834 117.988,183.501 123,183.5C 128.216,183.506 133.049,184.173 137.5,185.5C 137.167,185.5 136.833,185.5 136.5,185.5C 127.348,184.506 118.015,184.173 108.5,184.5 Z"/></g>
<g><path style="opacity:1" fill="#c1c1c6" d="M 108.5,184.5 C 108.5,198.5 108.5,212.5 108.5,226.5C 99.3483,227.494 90.015,227.827 80.5,227.5C 80.5,227.167 80.5,226.833 80.5,226.5C 89.5,226.5 98.5,226.5 107.5,226.5C 107.171,212.323 107.504,198.323 108.5,184.5 Z"/></g>
<g><path style="opacity:1" fill="#45494f" d="M 108.5,184.5 C 118.015,184.173 127.348,184.506 136.5,185.5C 127.5,185.5 118.5,185.5 109.5,185.5C 109.829,199.344 109.496,213.01 108.5,226.5C 108.5,212.5 108.5,198.5 108.5,184.5 Z"/></g>
<g><path style="opacity:1" fill="#0d6e34" d="M 180.5,113.5 C 180.5,113.833 180.5,114.167 180.5,114.5C 180.5,151.833 180.5,189.167 180.5,226.5C 208.328,227.498 236.328,227.831 264.5,227.5C 264.5,228.167 264.167,228.5 263.5,228.5C 235.5,228.5 207.5,228.5 179.5,228.5C 179.5,227.833 179.5,227.167 179.5,226.5C 179.168,188.663 179.502,150.996 180.5,113.5 Z"/></g>
<g><path style="opacity:1" fill="#041911" d="M 179.5,228.5 C 207.5,228.5 235.5,228.5 263.5,228.5C 263.586,229.496 263.252,230.329 262.5,231C 236.167,231.667 209.833,231.667 183.5,231C 181.68,230.8 180.347,229.966 179.5,228.5 Z"/></g>
</svg>
