<?xml version="1.0" encoding="UTF-8"?>
<!DOCTYPE svg PUBLIC "-//W3C//DTD SVG 1.1//EN" "http://www.w3.org/Graphics/SVG/1.1/DTD/svg11.dtd">
<svg xmlns="http://www.w3.org/2000/svg" version="1.1" width="1024px" height="1024px" style="shape-rendering:geometricPrecision; text-rendering:geometricPrecision; image-rendering:optimizeQuality; fill-rule:evenodd; clip-rule:evenodd" xmlns:xlink="http://www.w3.org/1999/xlink">
<g><path style="opacity:1" fill="#000000" d="M -0.5,-0.5 C 340.833,-0.5 682.167,-0.5 1023.5,-0.5C 1023.5,340.833 1023.5,682.167 1023.5,1023.5C 682.167,1023.5 340.833,1023.5 -0.5,1023.5C -0.5,682.167 -0.5,340.833 -0.5,-0.5 Z"/></g>
<g><path style="opacity:1" fill="#00a668" d="M 746.5,274.5 C 742.442,338.115 716.442,390.615 668.5,432C 641.493,453.33 610.826,466.163 576.5,470.5C 561.353,470.328 546.02,470.328 530.5,470.5C 530.5,399.167 530.5,327.833 530.5,256.5C 602.167,256.5 673.833,256.5 745.5,256.5C 745.177,262.69 745.51,268.69 746.5,274.5 Z"/></g>
<g><path style="opacity:1" fill="#00d686" d="M 275.5,255.5 C 348.5,255.5 421.5,255.5 494.5,255.5C 494.5,327.5 494.5,399.5 494.5,471.5C 421.5,471.5 348.5,471.5 275.5,471.5C 275.5,399.5 275.5,327.5 275.5,255.5 Z"/></g>
<g><path style="opacity:1" fill="#00a568" d="M 276.5,256.5 C 348.833,256.5 421.167,256.5 493.5,256.5C 493.5,327.833 493.5,399.167 493.5,470.5C 421.167,470.5 348.833,470.5 276.5,470.5C 276.5,399.167 276.5,327.833 276.5,256.5 Z"/></g>
<g><path style="opacity:1" fill="#00d988" d="M 746.5,274.5 C 745.51,268.69 745.177,262.69 745.5,256.5C 673.833,256.5 602.167,256.5 530.5,256.5C 530.5,327.833 530.5,399.167 530.5,470.5C 546.02,470.328 561.353,470.328 576.5,470.5C 560.858,471.42 545.191,471.753 529.5,471.5C 529.5,399.5 529.5,327.5 529.5,255.5C 601.833,255.5 674.167,255.5 746.5,255.5C 746.5,261.833 746.5,268.167 746.5,274.5 Z"/></g>
<g><path style="opacity:1" fill="#00a568" d="M 543.5,505.5 C 631.328,511.141 692.828,554.141 728,634.5C 739.48,663.401 745.647,693.401 746.5,724.5C 745.518,727.962 745.185,731.629 745.5,735.5C 673.665,735.167 601.998,735.501 530.5,736.5C 529.503,717.674 529.17,698.674 529.5,679.5C 530.499,622.002 530.832,564.336 530.5,506.5C 535.032,506.818 539.366,506.485 543.5,505.5 Z"/></g>
<g><path style="opacity:1" fill="#00d886" d="M 275.5,505.5 C 348.5,505.5 421.5,505.5 494.5,505.5C 494.5,582.5 494.5,659.5 494.5,736.5C 421.5,736.5 348.5,736.5 275.5,736.5C 275.5,659.5 275.5,582.5 275.5,505.5 Z"/></g>
<g><path style="opacity:1" fill="#00a568" d="M 276.5,506.5 C 348.833,506.5 421.167,506.5 493.5,506.5C 493.5,582.833 493.5,659.167 493.5,735.5C 421.167,735.5 348.833,735.5 276.5,735.5C 276.5,659.167 276.5,582.833 276.5,506.5 Z"/></g>
<g><path style="opacity:1" fill="#00d987" d="M 543.5,505.5 C 539.366,506.485 535.032,506.818 530.5,506.5C 530.832,564.336 530.499,622.002 529.5,679.5C 529.5,621.5 529.5,563.5 529.5,505.5C 534.167,505.5 538.833,505.5 543.5,505.5 Z"/></g>
<g><path style="opacity:1" fill="#00d281" d="M 746.5,724.5 C 746.5,728.5 746.5,732.5 746.5,736.5C 674.5,736.5 602.5,736.5 530.5,736.5C 601.998,735.501 673.665,735.167 745.5,735.5C 745.185,731.629 745.518,727.962 746.5,724.5 Z"/></g>
</svg>
