<?xml version="1.0" encoding="UTF-8"?>
<!DOCTYPE svg PUBLIC "-//W3C//DTD SVG 1.1//EN" "http://www.w3.org/Graphics/SVG/1.1/DTD/svg11.dtd">
<svg xmlns="http://www.w3.org/2000/svg" version="1.1" width="276px" height="278px" style="shape-rendering:geometricPrecision; text-rendering:geometricPrecision; image-rendering:optimizeQuality; fill-rule:evenodd; clip-rule:evenodd" xmlns:xlink="http://www.w3.org/1999/xlink">
<g><path style="opacity:1" fill="#f8f8f8" d="M -0.5,-0.5 C 91.5,-0.5 183.5,-0.5 275.5,-0.5C 275.5,92.1667 275.5,184.833 275.5,277.5C 183.5,277.5 91.5,277.5 -0.5,277.5C -0.5,184.833 -0.5,92.1667 -0.5,-0.5 Z"/></g>
<g><path style="opacity:1" fill="#1b924f" d="M 137.5,45.5 C 134.713,46.4767 131.713,46.81 128.5,46.5C 120.78,41.7295 117.447,35.0628 118.5,26.5C 125.06,32.612 131.394,38.9454 137.5,45.5 Z"/></g>
<g><path style="opacity:1" fill="#1f9351" d="M 148.5,46.5 C 145.287,46.81 142.287,46.4767 139.5,45.5C 144.775,38.5561 150.775,32.2228 157.5,26.5C 158.833,29.8333 158.833,33.1667 157.5,36.5C 154.506,39.8276 151.506,43.1609 148.5,46.5 Z"/></g>
<g><path style="opacity:1" fill="#a6ceb9" d="M 137.5,45.5 C 138.167,45.5 138.833,45.5 139.5,45.5C 142.287,46.4767 145.287,46.81 148.5,46.5C 141.833,47.8333 135.167,47.8333 128.5,46.5C 131.713,46.81 134.713,46.4767 137.5,45.5 Z"/></g>
<g><path style="opacity:1" fill="#128e4b" d="M 136.5,58.5 C 125.167,59.8333 113.833,59.8333 102.5,58.5C 103.96,56.5372 105.627,54.7038 107.5,53C 115.5,52.3333 123.5,52.3333 131.5,53C 133.373,54.7038 135.04,56.5372 136.5,58.5 Z"/></g>
<g><path style="opacity:1" fill="#118f4b" d="M 170.5,54.5 C 171.5,55.8333 172.5,57.1667 173.5,58.5C 162.167,59.8333 150.833,59.8333 139.5,58.5C 140.96,56.5372 142.627,54.7038 144.5,53C 152.5,52.3333 160.5,52.3333 168.5,53C 169.044,53.7172 169.711,54.2172 170.5,54.5 Z"/></g>
<g><path style="opacity:1" fill="#95c6a7" d="M 102.5,58.5 C 113.833,59.8333 125.167,59.8333 136.5,58.5C 137.043,58.56 137.376,58.8933 137.5,59.5C 125.5,60.8333 113.5,60.8333 101.5,59.5C 101.624,58.8933 101.957,58.56 102.5,58.5 Z"/></g>
<g><path style="opacity:1" fill="#95c7ae" d="M 139.5,58.5 C 150.833,59.8333 162.167,59.8333 173.5,58.5C 174.043,58.56 174.376,58.8933 174.5,59.5C 163.854,60.4987 153.187,60.832 142.5,60.5C 141.022,60.762 139.689,60.4287 138.5,59.5C 138.624,58.8933 138.957,58.56 139.5,58.5 Z"/></g>
<g><path style="opacity:1" fill="#e8f5ed" d="M 170.5,54.5 C 172.144,54.2865 173.644,54.6198 175,55.5C 175.27,58.2241 175.77,60.8908 176.5,63.5C 181.12,64.4933 185.786,64.8266 190.5,64.5C 190.5,66.1667 190.5,67.8333 190.5,69.5C 189.5,69.5 188.5,69.5 187.5,69.5C 187.833,68.8333 188.167,68.1667 188.5,67.5C 189.043,67.44 189.376,67.1067 189.5,66.5C 155.173,65.5001 120.84,65.1668 86.5,65.5C 104.996,64.6683 123.662,64.1683 142.5,64C 143.684,62.8545 143.684,61.6879 142.5,60.5C 153.187,60.832 163.854,60.4987 174.5,59.5C 174.376,58.8933 174.043,58.56 173.5,58.5C 172.5,57.1667 171.5,55.8333 170.5,54.5 Z"/></g>
<g><path style="opacity:1" fill="#2c9c64" d="M 86.5,65.5 C 120.84,65.1668 155.173,65.5001 189.5,66.5C 189.376,67.1067 189.043,67.44 188.5,67.5C 154.833,66.1667 121.167,66.1667 87.5,67.5C 86.6618,67.1583 86.3284,66.4916 86.5,65.5 Z"/></g>
<g><path style="opacity:1" fill="#229450" d="M 188.5,67.5 C 188.167,68.1667 187.833,68.8333 187.5,69.5C 186.188,70.1451 185.188,71.1451 184.5,72.5C 153.839,73.6665 123.172,73.8332 92.5,73C 90.6266,71.2962 88.9599,69.4628 87.5,67.5C 121.167,66.1667 154.833,66.1667 188.5,67.5 Z"/></g>
<g><path style="opacity:1" fill="#000149" d="M 92.5,79.5 C 94.5,79.5 96.5,79.5 98.5,79.5C 98.1686,109.005 98.5019,138.338 99.5,167.5C 125.167,167.5 150.833,167.5 176.5,167.5C 177.498,138.338 177.831,109.005 177.5,79.5C 179.167,79.5 180.833,79.5 182.5,79.5C 182.5,110.833 182.5,142.167 182.5,173.5C 152.5,173.5 122.5,173.5 92.5,173.5C 92.5,142.167 92.5,110.833 92.5,79.5 Z"/></g>
<g><path style="opacity:1" fill="#3e3e70" d="M 92.5,79.5 C 94.6074,78.5318 96.9407,78.1984 99.5,78.5C 99.5,108.167 99.5,137.833 99.5,167.5C 98.5019,138.338 98.1686,109.005 98.5,79.5C 96.5,79.5 94.5,79.5 92.5,79.5 Z"/></g>
<g><path style="opacity:1" fill="#bb1b24" d="M 164.5,79.5 C 166.797,81.2941 168.963,83.2941 171,85.5C 171.667,108.5 171.667,131.5 171,154.5C 168.833,156.667 166.667,158.833 164.5,161C 144.836,161.5 125.169,161.667 105.5,161.5C 105.5,134.167 105.5,106.833 105.5,79.5C 125.167,79.5 144.833,79.5 164.5,79.5 Z"/></g>
<g><path style="opacity:1" fill="#3e3864" d="M 183.5,79.5 C 183.167,79.5 182.833,79.5 182.5,79.5C 180.833,79.5 179.167,79.5 177.5,79.5C 177.831,109.005 177.498,138.338 176.5,167.5C 176.5,137.833 176.5,108.167 176.5,78.5C 179.059,78.1984 181.393,78.5318 183.5,79.5 Z"/></g>
<g><path style="opacity:1" fill="#bf5964" d="M 164.5,79.5 C 144.833,79.5 125.167,79.5 105.5,79.5C 105.5,106.833 105.5,134.167 105.5,161.5C 104.502,134.005 104.169,106.338 104.5,78.5C 124.674,78.1695 144.674,78.5029 164.5,79.5 Z"/></g>
<g><path style="opacity:1" fill="#d28f90" d="M 164.5,86.5 C 164.167,86.5 163.833,86.5 163.5,86.5C 146.5,86.5 129.5,86.5 112.5,86.5C 112.5,108.833 112.5,131.167 112.5,153.5C 112.5,153.833 112.5,154.167 112.5,154.5C 111.502,131.673 111.169,108.673 111.5,85.5C 129.341,85.1699 147.008,85.5033 164.5,86.5 Z"/></g>
<g><path style="opacity:1" fill="#dbc0bf" d="M 163.5,86.5 C 163.833,86.5 164.167,86.5 164.5,86.5C 164.5,109.167 164.5,131.833 164.5,154.5C 147.167,154.5 129.833,154.5 112.5,154.5C 112.5,154.167 112.5,153.833 112.5,153.5C 129.5,153.5 146.5,153.5 163.5,153.5C 163.5,131.167 163.5,108.833 163.5,86.5 Z"/></g>
<g><path style="opacity:1" fill="#f9f8f4" d="M 163.5,86.5 C 163.5,108.833 163.5,131.167 163.5,153.5C 146.5,153.5 129.5,153.5 112.5,153.5C 112.5,131.167 112.5,108.833 112.5,86.5C 129.5,86.5 146.5,86.5 163.5,86.5 Z"/></g>
<g><path style="opacity:1" fill="#efc955" d="M 124.5,140.5 C 123.504,126.677 123.171,112.677 123.5,98.5C 135.167,98.5 146.833,98.5 158.5,98.5C 158.5,96.5 158.5,94.5 158.5,92.5C 145.167,92.5 131.833,92.5 118.5,92.5C 118.5,110.833 118.5,129.167 118.5,147.5C 131.833,147.5 145.167,147.5 158.5,147.5C 145.01,148.496 131.344,148.829 117.5,148.5C 117.5,129.5 117.5,110.5 117.5,91.5C 131.5,91.5 145.5,91.5 159.5,91.5C 159.5,94.1667 159.5,96.8333 159.5,99.5C 147.833,99.5 136.167,99.5 124.5,99.5C 124.5,113.167 124.5,126.833 124.5,140.5 Z"/></g>
<g><path style="opacity:1" fill="#f9ba11" d="M 124.5,140.5 C 135.654,141.495 146.988,141.828 158.5,141.5C 158.5,143.5 158.5,145.5 158.5,147.5C 145.167,147.5 131.833,147.5 118.5,147.5C 118.5,129.167 118.5,110.833 118.5,92.5C 131.833,92.5 145.167,92.5 158.5,92.5C 158.5,94.5 158.5,96.5 158.5,98.5C 146.833,98.5 135.167,98.5 123.5,98.5C 123.171,112.677 123.504,126.677 124.5,140.5 Z"/></g>
<g><path style="opacity:1" fill="#1b1b55" d="M 182.5,79.5 C 182.833,79.5 183.167,79.5 183.5,79.5C 183.5,111.167 183.5,142.833 183.5,174.5C 152.995,174.831 122.662,174.498 92.5,173.5C 122.5,173.5 152.5,173.5 182.5,173.5C 182.5,142.167 182.5,110.833 182.5,79.5 Z"/></g>
<g><path style="opacity:1" fill="#0b8e48" d="M 92.5,181.5 C 122.664,180.336 152.997,180.169 183.5,181C 181.5,183 179.5,185 177.5,187C 151.167,187.667 124.833,187.667 98.5,187C 96.6298,184.96 94.6298,183.127 92.5,181.5 Z"/></g>
<g><path style="opacity:1" fill="#b4b1c3" d="M 143.5,200.5 C 139.901,199.656 136.234,199.323 132.5,199.5C 133.334,198.252 134.667,197.585 136.5,197.5C 138.375,197.63 140.208,197.963 142,198.5C 143.03,198.836 143.53,199.503 143.5,200.5 Z"/></g>
<g><path style="opacity:1" fill="#847f9a" d="M 100.5,200.5 C 98.544,198.825 97.2107,199.158 96.5,201.5C 95.596,200.791 95.2627,199.791 95.5,198.5C 97.7812,198.077 99.4479,198.744 100.5,200.5 Z"/></g>
<g><path style="opacity:1" fill="#9794ab" d="M 64.5,213.5 C 64.5,208.833 64.5,204.167 64.5,199.5C 63.5,199.5 62.5,199.5 61.5,199.5C 61.8182,204.032 61.4849,208.366 60.5,212.5C 60.5,207.833 60.5,203.167 60.5,198.5C 62.1667,198.5 63.8333,198.5 65.5,198.5C 65.8205,203.695 65.4872,208.695 64.5,213.5 Z"/></g>
<g><path style="opacity:1" fill="#9091a4" d="M 72.5,199.5 C 71.5,199.5 70.5,199.5 69.5,199.5C 69.5,205.167 69.5,210.833 69.5,216.5C 70.5,216.5 71.5,216.5 72.5,216.5C 72.1796,213.102 72.513,209.768 73.5,206.5C 74.1067,206.624 74.44,206.957 74.5,207.5C 73.5206,210.625 73.1872,213.958 73.5,217.5C 71.8333,217.5 70.1667,217.5 68.5,217.5C 68.5,211.167 68.5,204.833 68.5,198.5C 70.099,198.232 71.4324,198.566 72.5,199.5 Z"/></g>
<g><path style="opacity:1" fill="#545377" d="M 80.5,199.5 C 81.5676,198.566 82.901,198.232 84.5,198.5C 84.5,204.833 84.5,211.167 84.5,217.5C 82.901,217.768 81.5676,217.434 80.5,216.5C 81.5,216.5 82.5,216.5 83.5,216.5C 83.5,210.833 83.5,205.167 83.5,199.5C 82.5,199.5 81.5,199.5 80.5,199.5 Z"/></g>
<g><path style="opacity:1" fill="#5b6080" d="M 132.5,199.5 C 132.5,205.167 132.5,210.833 132.5,216.5C 133.5,216.5 134.5,216.5 135.5,216.5C 134.432,217.434 133.099,217.768 131.5,217.5C 131.177,211.31 131.51,205.31 132.5,199.5 Z"/></g>
<g><path style="opacity:1" fill="#12104e" d="M 132.5,199.5 C 136.234,199.323 139.901,199.656 143.5,200.5C 145.043,204.032 144.709,207.365 142.5,210.5C 144.327,212.487 145.327,214.821 145.5,217.5C 144.022,217.762 142.689,217.429 141.5,216.5C 140.411,213.41 138.411,211.41 135.5,210.5C 135.5,212.5 135.5,214.5 135.5,216.5C 134.5,216.5 133.5,216.5 132.5,216.5C 132.5,210.833 132.5,205.167 132.5,199.5 Z"/></g>
<g><path style="opacity:1" fill="#5b557f" d="M 92.5,199.5 C 91.5,199.5 90.5,199.5 89.5,199.5C 89.5,205.167 89.5,210.833 89.5,216.5C 90.5,216.5 91.5,216.5 92.5,216.5C 91.4324,217.434 90.099,217.768 88.5,217.5C 88.5,211.167 88.5,204.833 88.5,198.5C 90.099,198.232 91.4324,198.566 92.5,199.5 Z"/></g>
<g><path style="opacity:1" fill="#00003e" d="M 92.5,199.5 C 92.5,205.167 92.5,210.833 92.5,216.5C 91.5,216.5 90.5,216.5 89.5,216.5C 89.5,210.833 89.5,205.167 89.5,199.5C 90.5,199.5 91.5,199.5 92.5,199.5 Z"/></g>
<g><path style="opacity:1" fill="#010248" d="M 116.5,199.5 C 120.167,199.5 123.833,199.5 127.5,199.5C 127.5,200.5 127.5,201.5 127.5,202.5C 125.167,202.5 122.833,202.5 120.5,202.5C 119.566,203.568 119.232,204.901 119.5,206.5C 121.833,206.5 124.167,206.5 126.5,206.5C 126.5,207.5 126.5,208.5 126.5,209.5C 124.5,209.5 122.5,209.5 120.5,209.5C 119.549,210.919 119.216,212.585 119.5,214.5C 122.247,214.187 124.914,214.52 127.5,215.5C 123.893,216.489 120.226,216.823 116.5,216.5C 116.5,210.833 116.5,205.167 116.5,199.5 Z"/></g>
<g><path style="opacity:1" fill="#120f4c" d="M 151.5,198.5 C 153.527,198.338 155.527,198.505 157.5,199C 158.973,199.71 159.64,200.876 159.5,202.5C 157.167,202.5 154.833,202.5 152.5,202.5C 152.281,203.675 152.614,204.675 153.5,205.5C 155.811,206.214 157.978,207.214 160,208.5C 162.196,214.741 160.03,217.741 153.5,217.5C 149.57,218.244 148.237,216.91 149.5,213.5C 151.747,214.374 154.08,214.708 156.5,214.5C 156.762,213.022 156.429,211.689 155.5,210.5C 148.018,208.377 146.684,204.377 151.5,198.5 Z"/></g>
<g><path style="opacity:1" fill="#c1c4ce" d="M 135.5,202.5 C 137.167,202.5 138.833,202.5 140.5,202.5C 141.167,206.5 139.5,208.167 135.5,207.5C 135.5,205.833 135.5,204.167 135.5,202.5 Z"/></g>
<g><path style="opacity:1" fill="#797d96" d="M 120.5,202.5 C 120.5,203.5 120.5,204.5 120.5,205.5C 122.833,205.5 125.167,205.5 127.5,205.5C 127.768,207.099 127.434,208.432 126.5,209.5C 126.5,208.5 126.5,207.5 126.5,206.5C 124.167,206.5 121.833,206.5 119.5,206.5C 119.232,204.901 119.566,203.568 120.5,202.5 Z"/></g>
<g><path style="opacity:1" fill="#0e0d4b" d="M 210.5,198.5 C 221.596,197.098 226.429,201.765 225,212.5C 221.309,217.11 216.476,218.776 210.5,217.5C 210.5,211.167 210.5,204.833 210.5,198.5 Z"/></g>
<g><path style="opacity:1" fill="#e9ecee" d="M 214.5,202.5 C 220.997,202.18 223.164,205.18 221,211.5C 220.292,212.381 219.458,213.047 218.5,213.5C 217.167,213.5 215.833,213.5 214.5,213.5C 214.5,209.833 214.5,206.167 214.5,202.5 Z"/></g>
<g><path style="opacity:1" fill="#5f5f81" d="M 214.5,202.5 C 214.5,206.167 214.5,209.833 214.5,213.5C 215.833,213.5 217.167,213.5 218.5,213.5C 217.081,214.451 215.415,214.784 213.5,214.5C 213.183,210.298 213.517,206.298 214.5,202.5 Z"/></g>
<g><path style="opacity:1" fill="#14104d" d="M 100.5,200.5 C 101.435,204.306 102.769,207.972 104.5,211.5C 105.832,207.839 107.165,204.172 108.5,200.5C 109.689,199.571 111.022,199.238 112.5,199.5C 111.872,204.428 110.372,209.095 108,213.5C 107.244,216.792 105.411,217.792 102.5,216.5C 100.208,211.587 98.2076,206.587 96.5,201.5C 97.2107,199.158 98.544,198.825 100.5,200.5 Z"/></g>
<g><path style="opacity:1" fill="#090e48" d="M 164.5,199.5 C 165.833,199.5 167.167,199.5 168.5,199.5C 168.5,205.5 168.5,211.5 168.5,217.5C 167.167,217.5 165.833,217.5 164.5,217.5C 164.5,211.5 164.5,205.5 164.5,199.5 Z"/></g>
<g><path style="opacity:1" fill="#171051" d="M 173.5,198.5 C 188.008,198.112 191.675,203.945 184.5,216C 180.94,217.237 177.273,217.737 173.5,217.5C 173.5,211.167 173.5,204.833 173.5,198.5 Z"/></g>
<g><path style="opacity:1" fill="#e6e6ea" d="M 182.5,203.5 C 184.026,204.492 184.693,205.992 184.5,208C 184.876,210.655 183.876,212.488 181.5,213.5C 180.167,213.5 178.833,213.5 177.5,213.5C 177.5,210.167 177.5,206.833 177.5,203.5C 179.167,203.5 180.833,203.5 182.5,203.5 Z"/></g>
<g><path style="opacity:1" fill="#8f92aa" d="M 182.5,203.5 C 180.833,203.5 179.167,203.5 177.5,203.5C 177.5,206.833 177.5,210.167 177.5,213.5C 178.833,213.5 180.167,213.5 181.5,213.5C 180.081,214.451 178.415,214.784 176.5,214.5C 176.5,210.5 176.5,206.5 176.5,202.5C 178.735,202.205 180.735,202.539 182.5,203.5 Z"/></g>
<g><path style="opacity:1" fill="#07074a" d="M 72.5,199.5 C 75.5211,202.366 78.0211,205.7 80,209.5C 80.4983,206.183 80.665,202.85 80.5,199.5C 81.5,199.5 82.5,199.5 83.5,199.5C 83.5,205.167 83.5,210.833 83.5,216.5C 82.5,216.5 81.5,216.5 80.5,216.5C 78.7349,213.291 76.7349,210.291 74.5,207.5C 74.44,206.957 74.1067,206.624 73.5,206.5C 72.513,209.768 72.1796,213.102 72.5,216.5C 71.5,216.5 70.5,216.5 69.5,216.5C 69.5,210.833 69.5,205.167 69.5,199.5C 70.5,199.5 71.5,199.5 72.5,199.5 Z"/></g>
<g><path style="opacity:1" fill="#171350" d="M 196.5,199.5 C 198.766,199.141 200.599,199.808 202,201.5C 203.833,206.5 205.667,211.5 207.5,216.5C 204.167,218.252 202.501,217.252 202.5,213.5C 199.833,213.5 197.167,213.5 194.5,213.5C 194.5,214.833 194.5,216.167 194.5,217.5C 193.167,217.5 191.833,217.5 190.5,217.5C 191.899,211.303 193.899,205.303 196.5,199.5 Z"/></g>
<g><path style="opacity:1" fill="#b3b6c6" d="M 197.5,204.5 C 198.496,204.414 199.329,204.748 200,205.5C 200.494,207.134 200.66,208.801 200.5,210.5C 199.167,210.5 197.833,210.5 196.5,210.5C 196.833,208.5 197.167,206.5 197.5,204.5 Z"/></g>
<g><path style="opacity:1" fill="#0a0b4a" d="M 60.5,212.5 C 61.4849,208.366 61.8182,204.032 61.5,199.5C 62.5,199.5 63.5,199.5 64.5,199.5C 64.5,204.167 64.5,208.833 64.5,213.5C 61.7946,217.17 58.1279,218.337 53.5,217C 52.2986,216.097 51.4652,214.931 51,213.5C 50.5008,208.845 50.3342,204.179 50.5,199.5C 51.8333,199.5 53.1667,199.5 54.5,199.5C 54.3343,203.846 54.501,208.179 55,212.5C 56.879,215.066 58.7123,215.066 60.5,212.5 Z"/></g>
<g><path style="opacity:1" fill="#5e5d84" d="M 116.5,199.5 C 116.5,205.167 116.5,210.833 116.5,216.5C 120.226,216.823 123.893,216.489 127.5,215.5C 124.914,214.52 122.247,214.187 119.5,214.5C 119.216,212.585 119.549,210.919 120.5,209.5C 120.5,210.833 120.5,212.167 120.5,213.5C 123.167,213.5 125.833,213.5 128.5,213.5C 128.5,214.833 128.5,216.167 128.5,217.5C 124.167,217.5 119.833,217.5 115.5,217.5C 115.177,211.31 115.51,205.31 116.5,199.5 Z"/></g>
<g><path style="opacity:1" fill="#54487d" d="M 77.5,223.5 C 86.1922,223.169 94.8589,223.502 103.5,224.5C 99.1667,224.833 94.8333,225.167 90.5,225.5C 85.7784,225.492 81.4451,224.825 77.5,223.5 Z"/></g>
<g><path style="opacity:1" fill="#7a7a92" d="M 188.5,224.5 C 188.5,230.5 188.5,236.5 188.5,242.5C 192.5,242.5 196.5,242.5 200.5,242.5C 196.366,243.485 192.032,243.818 187.5,243.5C 187.177,236.978 187.51,230.645 188.5,224.5 Z"/></g>
<g><path style="opacity:1" fill="#625c85" d="M 162.5,224.5 C 162.5,230.5 162.5,236.5 162.5,242.5C 163.5,242.5 164.5,242.5 165.5,242.5C 164.432,243.434 163.099,243.768 161.5,243.5C 161.177,236.978 161.51,230.645 162.5,224.5 Z"/></g>
<g><path style="opacity:1" fill="#05044b" d="M 162.5,224.5 C 163.5,224.5 164.5,224.5 165.5,224.5C 165.5,230.5 165.5,236.5 165.5,242.5C 164.5,242.5 163.5,242.5 162.5,242.5C 162.5,236.5 162.5,230.5 162.5,224.5 Z"/></g>
<g><path style="opacity:1" fill="#9296ad" d="M 120.5,227.5 C 117.997,228.371 115.33,229.037 112.5,229.5C 112.611,228.883 112.944,228.383 113.5,228C 115.81,227.503 118.143,227.337 120.5,227.5 Z"/></g>
<g><path style="opacity:1" fill="#2a2258" d="M 85.5,230.5 C 86.7297,236.485 84.3964,239.152 78.5,238.5C 77.5206,235.375 77.1872,232.042 77.5,228.5C 80.5133,228.107 83.1799,228.774 85.5,230.5 Z"/></g>
<g><path style="opacity:1" fill="#968fab" d="M 83.5,231.5 C 82.5,231.5 81.5,231.5 80.5,231.5C 80.5,233.167 80.5,234.833 80.5,236.5C 79.5386,234.735 79.2053,232.735 79.5,230.5C 81.099,230.232 82.4324,230.566 83.5,231.5 Z"/></g>
<g><path style="opacity:1" fill="#13114d" d="M 130.5,224.5 C 132.288,224.215 133.955,224.548 135.5,225.5C 138.59,230.768 140.257,236.434 140.5,242.5C 138.184,240.94 135.684,239.606 133,238.5C 129.737,237.932 128.237,239.266 128.5,242.5C 127.167,242.5 125.833,242.5 124.5,242.5C 126.512,236.482 128.512,230.482 130.5,224.5 Z"/></g>
<g><path style="opacity:1" fill="#eff1f1" d="M 83.5,231.5 C 84.0838,234.285 83.0838,235.952 80.5,236.5C 80.5,234.833 80.5,233.167 80.5,231.5C 81.5,231.5 82.5,231.5 83.5,231.5 Z"/></g>
<g><path style="opacity:1" fill="#14124e" d="M 170.5,224.5 C 174.637,224.146 178.637,224.646 182.5,226C 183.78,228.132 183.78,230.298 182.5,232.5C 185.368,235.995 185.035,239.162 181.5,242C 177.848,242.499 174.182,242.665 170.5,242.5C 170.5,236.5 170.5,230.5 170.5,224.5 Z"/></g>
<g><path style="opacity:1" fill="#ced1da" d="M 174.5,227.5 C 176.167,227.5 177.833,227.5 179.5,227.5C 179.5,228.833 179.5,230.167 179.5,231.5C 177.833,231.5 176.167,231.5 174.5,231.5C 174.5,230.167 174.5,228.833 174.5,227.5 Z"/></g>
<g><path style="opacity:1" fill="#bfc2cf" d="M 131.5,229.5 C 132.496,229.414 133.329,229.748 134,230.5C 134.494,232.134 134.66,233.801 134.5,235.5C 133.167,235.5 131.833,235.5 130.5,235.5C 130.833,233.5 131.167,231.5 131.5,229.5 Z"/></g>
<g><path style="opacity:1" fill="#15124f" d="M 156.5,238.5 C 158.074,242.009 157.074,243.009 153.5,241.5C 150.105,233.302 148.439,233.635 148.5,242.5C 147.167,242.5 145.833,242.5 144.5,242.5C 144.5,236.5 144.5,230.5 144.5,224.5C 148.911,224.021 153.078,224.688 157,226.5C 157.891,229.934 157.391,233.101 155.5,236C 155.743,236.902 156.077,237.735 156.5,238.5 Z"/></g>
<g><path style="opacity:1" fill="#d2d3dc" d="M 148.5,227.5 C 152.676,226.831 154.009,228.331 152.5,232C 151.207,232.49 149.873,232.657 148.5,232.5C 148.5,230.833 148.5,229.167 148.5,227.5 Z"/></g>
<g><path style="opacity:1" fill="#090a4c" d="M 188.5,224.5 C 192.167,224.5 195.833,224.5 199.5,224.5C 199.5,225.5 199.5,226.5 199.5,227.5C 197.143,227.337 194.81,227.503 192.5,228C 191.663,229.011 191.33,230.178 191.5,231.5C 193.833,231.5 196.167,231.5 198.5,231.5C 198.5,232.5 198.5,233.5 198.5,234.5C 196.167,234.5 193.833,234.5 191.5,234.5C 191.5,236.167 191.5,237.833 191.5,239.5C 194.5,239.5 197.5,239.5 200.5,239.5C 200.5,240.5 200.5,241.5 200.5,242.5C 196.5,242.5 192.5,242.5 188.5,242.5C 188.5,236.5 188.5,230.5 188.5,224.5 Z"/></g>
<g><path style="opacity:1" fill="#0d0d4c" d="M 120.5,227.5 C 118.143,227.337 115.81,227.503 113.5,228C 112.944,228.383 112.611,228.883 112.5,229.5C 110.38,237.213 113.38,240.547 121.5,239.5C 121.5,240.5 121.5,241.5 121.5,242.5C 110.836,244.483 106.336,240.149 108,229.5C 108.785,227.714 109.951,226.214 111.5,225C 114.817,224.502 118.15,224.335 121.5,224.5C 121.737,225.791 121.404,226.791 120.5,227.5 Z"/></g>
<g><path style="opacity:1" fill="#dddfe5" d="M 174.5,234.5 C 176.199,234.34 177.866,234.506 179.5,235C 180.833,236.333 180.833,237.667 179.5,239C 177.866,239.494 176.199,239.66 174.5,239.5C 174.5,237.833 174.5,236.167 174.5,234.5 Z"/></g>
<g><path style="opacity:1" fill="#1d184e" d="M 96.5,228.5 C 98.369,230.635 99.0356,233.302 98.5,236.5C 100.483,236.157 101.817,236.824 102.5,238.5C 100.5,238.5 98.5,238.5 96.5,238.5C 96.5,235.167 96.5,231.833 96.5,228.5 Z"/></g>
<g><path style="opacity:1" fill="#afafc1" d="M 198.5,231.5 C 199.434,232.568 199.768,233.901 199.5,235.5C 197.167,235.5 194.833,235.5 192.5,235.5C 192.5,236.5 192.5,237.5 192.5,238.5C 195.385,238.194 198.052,238.527 200.5,239.5C 197.5,239.5 194.5,239.5 191.5,239.5C 191.5,237.833 191.5,236.167 191.5,234.5C 193.833,234.5 196.167,234.5 198.5,234.5C 198.5,233.5 198.5,232.5 198.5,231.5 Z"/></g>
<g><path style="opacity:1" fill="#dee0e3" d="M 96.5,228.5 C 96.5,231.833 96.5,235.167 96.5,238.5C 98.5,238.5 100.5,238.5 102.5,238.5C 103.873,238.343 105.207,238.51 106.5,239C 104.391,239.907 103.058,241.407 102.5,243.5C 94.5671,241.532 86.2337,240.865 77.5,241.5C 78.9516,240.698 80.6183,240.198 82.5,240C 80.9419,239.79 79.6085,239.29 78.5,238.5C 84.3964,239.152 86.7297,236.485 85.5,230.5C 86.1667,229.833 86.8333,229.167 87.5,228.5C 89.6074,227.532 91.9407,227.198 94.5,227.5C 94.3359,230.187 94.5026,232.854 95,235.5C 95.1862,232.964 95.6862,230.631 96.5,228.5 Z"/></g>
<g><path style="opacity:1" fill="#252154" d="M 87.5,228.5 C 89.604,228.201 91.604,228.534 93.5,229.5C 89.5,230.833 89.5,232.167 93.5,233.5C 92.1667,234.167 90.8333,234.833 89.5,235.5C 91.1667,236.167 92.8333,236.833 94.5,237.5C 92.2573,238.474 89.924,238.808 87.5,238.5C 87.5,235.167 87.5,231.833 87.5,228.5 Z"/></g>
<g><path style="opacity:1" fill="#4e4476" d="M 77.5,241.5 C 86.2337,240.865 94.5671,241.532 102.5,243.5C 93.7663,244.135 85.4329,243.468 77.5,241.5 Z"/></g>
<g><path style="opacity:1" fill="#8f8ea8" d="M 156.5,238.5 C 158.213,239.635 158.88,241.302 158.5,243.5C 156.219,243.923 154.552,243.256 153.5,241.5C 157.074,243.009 158.074,242.009 156.5,238.5 Z"/></g>
</svg>
